<?xml version="1.0" encoding="iso-8859-1"?>
<!-- Uploaded to: SVG Repo, www.svgrepo.com, Generator: SVG Repo Mixer Tools -->
<svg height="800px" width="800px" version="1.1" id="Layer_1" xmlns="http://www.w3.org/2000/svg" xmlns:xlink="http://www.w3.org/1999/xlink" 
	 viewBox="0 0 503.607 503.607" xml:space="preserve">
<g transform="translate(1 1)">
	<path style="fill:#FFDD09;" d="M437.138,91.328H166.869v335.738c0,18.466-15.108,33.574-33.574,33.574H82.934
		c-18.466,0-33.574-15.108-33.574-33.574V93.007C25.02,99.721,7.393,121.544,7.393,147.564v289.574
		c0,31.895,25.18,57.075,57.075,57.075h373.508c31.056,0,57.075-25.18,57.075-57.075V148.403
		C494.213,116.508,469.033,91.328,437.138,91.328"/>
	<g>
		<path style="fill:#FD9808;" d="M259.197,292.77h-33.574c-5.036,0-8.393-3.357-8.393-8.393v-33.574
			c0-5.036,3.357-8.393,8.393-8.393h33.574c5.036,0,8.393,3.357,8.393,8.393v33.574C267.59,289.413,264.233,292.77,259.197,292.77"
			/>
		<path style="fill:#FD9808;" d="M259.197,376.705h-33.574c-5.036,0-8.393-3.357-8.393-8.393v-33.574
			c0-5.036,3.357-8.393,8.393-8.393h33.574c5.036,0,8.393,3.357,8.393,8.393v33.574C267.59,373.348,264.233,376.705,259.197,376.705
			"/>
		<path style="fill:#FD9808;" d="M259.197,460.639h-33.574c-5.036,0-8.393-3.357-8.393-8.393v-33.574
			c0-5.036,3.357-8.393,8.393-8.393h33.574c5.036,0,8.393,3.357,8.393,8.393v33.574C267.59,457.282,264.233,460.639,259.197,460.639
			"/>
		<path style="fill:#FD9808;" d="M351.525,292.77h-33.574c-5.036,0-8.393-3.357-8.393-8.393v-33.574
			c0-5.036,3.357-8.393,8.393-8.393h33.574c5.036,0,8.393,3.357,8.393,8.393v33.574C359.918,289.413,356.561,292.77,351.525,292.77"
			/>
		<path style="fill:#FD9808;" d="M351.525,376.705h-33.574c-5.036,0-8.393-3.357-8.393-8.393v-33.574
			c0-5.036,3.357-8.393,8.393-8.393h33.574c5.036,0,8.393,3.357,8.393,8.393v33.574
			C359.918,373.348,356.561,376.705,351.525,376.705"/>
		<path style="fill:#FD9808;" d="M351.525,460.639h-33.574c-5.036,0-8.393-3.357-8.393-8.393v-33.574
			c0-5.036,3.357-8.393,8.393-8.393h33.574c5.036,0,8.393,3.357,8.393,8.393v33.574
			C359.918,457.282,356.561,460.639,351.525,460.639"/>
		<path style="fill:#FD9808;" d="M443.852,292.77h-33.574c-5.036,0-8.393-3.357-8.393-8.393v-33.574
			c0-5.036,3.357-8.393,8.393-8.393h33.574c5.036,0,8.393,3.357,8.393,8.393v33.574C452.246,289.413,448.888,292.77,443.852,292.77"
			/>
		<path style="fill:#FD9808;" d="M443.852,376.705h-33.574c-5.036,0-8.393-3.357-8.393-8.393v-33.574
			c0-5.036,3.357-8.393,8.393-8.393h33.574c5.036,0,8.393,3.357,8.393,8.393v33.574
			C452.246,373.348,448.888,376.705,443.852,376.705"/>
		<path style="fill:#FD9808;" d="M443.852,460.639h-33.574c-5.036,0-8.393-3.357-8.393-8.393v-33.574
			c0-5.036,3.357-8.393,8.393-8.393h33.574c5.036,0,8.393,3.357,8.393,8.393v33.574
			C452.246,457.282,448.888,460.639,443.852,460.639"/>
	</g>
	<path style="fill:#15A143;" d="M133.295,460.639H82.934c-18.466,0-33.574-15.108-33.574-33.574V40.967
		c0-18.466,15.108-33.574,33.574-33.574h50.361c18.466,0,33.574,15.108,33.574,33.574v386.098
		C166.869,445.531,151.761,460.639,133.295,460.639"/>
	<path style="fill:#1CD759;" d="M108.115,460.639h-25.18c-18.466,0-33.574-15.108-33.574-33.574V40.967
		c0-18.466,15.108-33.574,33.574-33.574h25.18c18.466,0,33.574,15.108,33.574,33.574v386.098
		C141.689,445.531,126.58,460.639,108.115,460.639"/>
	<path style="fill:#15A143;" d="M443.852,208.836h-218.23c-9.233,0-16.787-7.554-16.787-16.787v-50.361
		c0-9.233,7.554-16.787,16.787-16.787h218.23c9.233,0,16.787,7.554,16.787,16.787v50.361
		C460.639,201.282,453.085,208.836,443.852,208.836"/>
	<path style="fill:#1CD759;" d="M418.672,208.836H225.623c-9.233,0-16.787-7.554-16.787-16.787v-50.361
		c0-9.233,7.554-16.787,16.787-16.787h193.049c9.233,0,16.787,7.554,16.787,16.787v50.361
		C435.459,201.282,427.905,208.836,418.672,208.836"/>
	<path d="M133.295,469.033H82.934c-23.502,0-41.967-18.466-41.967-41.967V40.967C40.967,17.466,59.433-1,82.934-1h50.361
		c23.502,0,41.967,18.466,41.967,41.967v386.098C175.262,450.567,156.797,469.033,133.295,469.033z M82.934,15.787
		c-13.43,0-25.18,10.911-25.18,25.18v386.098c0,14.269,10.911,25.18,25.18,25.18h50.361c14.269,0,25.18-10.911,25.18-25.18V40.967
		c0-14.269-10.911-25.18-25.18-25.18H82.934z"/>
	<path d="M443.852,217.229h-218.23c-14.269,0-25.18-10.911-25.18-25.18v-50.361c0-14.269,10.911-25.18,25.18-25.18h218.23
		c14.269,0,25.18,10.911,25.18,25.18v50.361C469.033,206.318,458.121,217.229,443.852,217.229z M225.623,133.295
		c-5.036,0-8.393,3.357-8.393,8.393v50.361c0,5.036,3.357,8.393,8.393,8.393h218.23c5.036,0,8.393-3.357,8.393-8.393v-50.361
		c0-5.036-3.357-8.393-8.393-8.393H225.623z"/>
	<path d="M259.197,301.164h-33.574c-9.233,0-16.787-7.554-16.787-16.787v-33.574c0-9.233,7.554-16.787,16.787-16.787h33.574
		c9.233,0,16.787,7.554,16.787,16.787v33.574C275.984,293.61,268.43,301.164,259.197,301.164z M259.197,284.377v8.393V284.377
		L259.197,284.377z M225.623,250.803v33.574h33.574v-33.574H225.623z"/>
	<path d="M259.197,385.098h-33.574c-9.233,0-16.787-7.554-16.787-16.787v-33.574c0-9.233,7.554-16.787,16.787-16.787h33.574
		c9.233,0,16.787,7.554,16.787,16.787v33.574C275.984,377.544,268.43,385.098,259.197,385.098z M259.197,368.311v8.393V368.311
		L259.197,368.311z M225.623,334.738v33.574h33.574v-33.574H225.623z"/>
	<path d="M259.197,469.033h-33.574c-9.233,0-16.787-7.554-16.787-16.787v-33.574c0-9.233,7.554-16.787,16.787-16.787h33.574
		c9.233,0,16.787,7.554,16.787,16.787v33.574C275.984,461.479,268.43,469.033,259.197,469.033z M259.197,452.246v8.393V452.246
		L259.197,452.246z M225.623,418.672v33.574h33.574v-33.574H225.623z"/>
	<path d="M351.525,301.164h-33.574c-9.233,0-16.787-7.554-16.787-16.787v-33.574c0-9.233,7.554-16.787,16.787-16.787h33.574
		c9.233,0,16.787,7.554,16.787,16.787v33.574C368.311,293.61,360.757,301.164,351.525,301.164z M351.525,284.377v8.393V284.377
		L351.525,284.377z M317.951,250.803v33.574h33.574v-33.574H317.951z"/>
	<path d="M351.525,385.098h-33.574c-9.233,0-16.787-7.554-16.787-16.787v-33.574c0-9.233,7.554-16.787,16.787-16.787h33.574
		c9.233,0,16.787,7.554,16.787,16.787v33.574C368.311,377.544,360.757,385.098,351.525,385.098z M351.525,368.311v8.393V368.311
		L351.525,368.311z M317.951,334.738v33.574h33.574v-33.574H317.951z"/>
	<path d="M351.525,469.033h-33.574c-9.233,0-16.787-7.554-16.787-16.787v-33.574c0-9.233,7.554-16.787,16.787-16.787h33.574
		c9.233,0,16.787,7.554,16.787,16.787v33.574C368.311,461.479,360.757,469.033,351.525,469.033z M351.525,452.246v8.393V452.246
		L351.525,452.246z M317.951,418.672v33.574h33.574v-33.574H317.951z"/>
	<path d="M443.852,301.164h-33.574c-9.233,0-16.787-7.554-16.787-16.787v-33.574c0-9.233,7.554-16.787,16.787-16.787h33.574
		c9.233,0,16.787,7.554,16.787,16.787v33.574C460.639,293.61,453.085,301.164,443.852,301.164z M443.852,284.377v8.393V284.377
		L443.852,284.377z M410.279,250.803v33.574h33.574v-33.574H410.279z"/>
	<path d="M443.852,385.098h-33.574c-9.233,0-16.787-7.554-16.787-16.787v-33.574c0-9.233,7.554-16.787,16.787-16.787h33.574
		c9.233,0,16.787,7.554,16.787,16.787v33.574C460.639,377.544,453.085,385.098,443.852,385.098z M443.852,368.311v8.393V368.311
		L443.852,368.311z M410.279,334.738v33.574h33.574v-33.574H410.279z"/>
	<path d="M443.852,469.033h-33.574c-9.233,0-16.787-7.554-16.787-16.787v-33.574c0-9.233,7.554-16.787,16.787-16.787h33.574
		c9.233,0,16.787,7.554,16.787,16.787v33.574C460.639,461.479,453.085,469.033,443.852,469.033z M443.852,452.246v8.393V452.246
		L443.852,452.246z M410.279,418.672v33.574h33.574v-33.574H410.279z"/>
	<path d="M437.138,502.607H64.469C28.377,502.607-1,473.229-1,437.138V148.403c0-29.377,20.144-55.397,47.843-62.951
		c2.518-0.839,5.036,0,7.554,1.679c2.518,0.839,3.357,3.357,3.357,5.875v334.059c0,14.269,10.911,25.18,25.18,25.18h50.361
		c14.269,0,25.18-10.911,25.18-25.18V91.328c0-5.036,3.357-8.393,8.393-8.393h270.269c36.092,0,65.469,29.377,65.469,65.469v289.574
		C502.607,473.229,473.229,502.607,437.138,502.607z M40.967,105.597c-15.108,8.393-25.18,24.341-25.18,42.807v289.574
		c0,26.02,21.823,47.843,48.682,47.843h373.508c26.859,0,48.682-21.823,48.682-48.682V148.403c0-26.859-21.823-48.682-48.682-48.682
		H175.262v327.344c0,23.502-18.466,41.967-41.967,41.967H82.934c-23.502,0-41.967-18.466-41.967-41.967V105.597z"/>
	<path d="M234.016,175.262c-2.518,0-4.197-0.839-5.875-2.518c-3.357-3.357-3.357-8.393,0-11.751l16.787-16.787
		c3.357-3.357,8.393-3.357,11.751,0c3.357,3.357,3.357,8.393,0,11.751l-16.787,16.787
		C238.213,174.423,236.534,175.262,234.016,175.262z"/>
	<path d="M418.672,192.049c-2.518,0-4.197-0.839-5.875-2.518c-3.357-3.357-3.357-8.393,0-11.751l16.787-16.787
		c3.357-3.357,8.393-3.357,11.751,0s3.357,8.393,0,11.751l-16.787,16.787C422.869,191.21,421.19,192.049,418.672,192.049z"/>
	<path d="M267.59,192.049c-2.518,0-4.197-0.839-5.875-2.518c-3.357-3.357-3.357-8.393,0-11.751l33.574-33.574
		c3.357-3.357,8.393-3.357,11.751,0s3.357,8.393,0,11.751l-33.574,33.574C271.787,191.21,270.108,192.049,267.59,192.049z"/>
	<path d="M317.951,192.049c-2.518,0-4.197-0.839-5.875-2.518c-3.357-3.357-3.357-8.393,0-11.751l33.574-33.574
		c3.357-3.357,8.393-3.357,11.751,0s3.357,8.393,0,11.751l-33.574,33.574C322.148,191.21,320.469,192.049,317.951,192.049z"/>
	<path d="M368.311,192.049c-2.518,0-4.197-0.839-5.875-2.518c-3.357-3.357-3.357-8.393,0-11.751l33.574-33.574
		c3.357-3.357,8.393-3.357,11.751,0s3.357,8.393,0,11.751l-33.574,33.574C372.508,191.21,370.829,192.049,368.311,192.049z"/>
</g>
</svg>